<svg fill="#efe6d6" xmlns="http://www.w3.org/2000/svg" viewBox="0 0 1555.4 120.5"><path d="M927.9 93.4h-2.1c-2.4 0-4.4-3.8-4.4-3.8V56.2c0-10.3-13.2-14.7-20.5-14.7-14.4 0-20.3 11.2-21.6 11.6 0-5-7.9-11.6-10.9-11.6-4.3 0-9.2 8-11.1 10.4h-.7s-.7-3.7-.7-3.8v-6.6c-.7-.5-1-.8-1.4-.8-3 0-2.3 2.5-10.4 5.1-4.9 1.6-9.2 1.4-9.2 4.3 0 4.6 7.8.5 7.8 10.6v29.4c0 6-5.5 7.3-5.5 9.9 0 2.5 1.5 2.4 2.8 2h24.7c1.2 0 1.8-.9 1.8-1.8 0-3.9-10.6-2.8-10.6-11.4V63s1.2-6.3 5.3-6.3h2.1c4.3 0 7.2 5.1 9.5 5.1 3.5 0 4-6.9 6.5-7.6v4.1c0 1.3 1.6 2.8 3.5 2.8 7.1 0 9.5-3.7 9.7-3.8v-5.8c0-2.9 2.6-4.3 5.3-4.3 4.1 0 10.6 5.1 10.6 11.6v6.6c0 3.5-11 3.4-18.4 7.3-12 6.3-12 14.4-12 14.7V93c0 2.3 4.4 10.6 10.1 10.6h4.8c4.5 0 15.8-6.8 15.9-6.8 2.3 0 4.6 6.1 10.1 6.1h2.1c5.2 0 11.1-5.4 11.1-7.6 0-3.4-2.8-1.9-4.2-1.9zm-80.6-31.9v27.8c-1.1.8.2 2.4-2.1 4v-.8h.5l-.5-33.4v-3.3c2.5 2.9 2.2 3 2.1 5.7zm25.3-4h-.7c-.9-.8-3.6-2.4-4.6-3.5h1.2l4.1 1.8v1.7zm12.9-5.9c-.8.6-1.4 4.9-1.4 5.3H883v-3c.6-.4.7-1.3 2.5-3.3v1zm-4.4 41.5s-1.4-6.3 2.1-10.6v1c-1.3 1-.4 8.7.9 11.6 1.2 2.6 2.1 3.5 2.3 4.3-5.1-2.3-4.4-5.7-5.3-6.3zm27-5.8c-.4.3-1 6.8-7.4 6.8h-2.1c-3.8 0-6-3.9-6-7.1 0-.6.3-.5 0-1.8.2-.1 1.8-11.8 12-12.4 1.4-.1 2.4.7 3.5 0v14.5zm4.6 4.8l-1.9-.8V71s1.9-15-2.2-21.4c4.8 4.2 3.3 8.2 4.2 8.9l-.1 33.6zm-81.1-4.5c-2.3 0-6.1 5.6-12.9 5.6h-2.5c-13.5 0-17.2-19.5-17.2-19.5s-1.3-11.1.1-14.2c.7-1.5 3-12.1 10.6-12.1 10.3 0 9.2 13.9 12.9 13.9 1 0 9-4.6 9-8.4 0-5.1-6.6-11.4-14.8-11.4h-3c-1.5 0-15.1 1.1-22.8 14.2-4.3 7.3-5.1 12.4-5.1 12.7V81c0 5.5 5.6 13.8 7.4 15.4 6.7 6.2 14.7 7.1 14.8 7.1h3.5c10.5 0 21.4-10.6 21.4-13.9 0-.7 0-2-1.4-2zm-11.8-38.2c3.9 2.9 3.5 4.4 4.4 5.1v2c-.6.1-.7 0-.9 0-.7 0-2.3-5.5-3.5-6.3v-.8zm-26 43c-8.8-13.5-4.7-28.1-.7-34.7v.8c-.9.7-5.5 17.5.9 31.4 2.5 5.4 4.7 6.4 4.8 6.8-3.2-3.1-4.8-3.9-5-4.3zm-76.8.5c-.3-.8-.3-2.8-.9-4.6V59.5c0-9.8-8.2-18-18-18h-3.9c-7.3 0-14.4 10.4-15.2 10.4-1.7 0-5.6-10.4-15.4-10.4h-2.1c-7.2 0-13.6 7.8-14.5 7.8-.2 0-.5-.3-.9-.8V42c0-.4-.4-2.3-1.6-2.3-2.6 0-2 2-10.8 4.8-3.8 1.2-9.9 2.3-9.9 4.8 0 3.4 8.3 1.9 8.3 8.6v31.9c0 7.6-6.9 6-6.9 9.6 0 2.1-.2 2.1 1.8 1.9l26.5-.1c1.5-.1 2.8-.5 2.8-1.9 0-3.9-10.6-2-10.6-10.9V61.2c0-3 3.2-10.4 9.5-10.4 7 0 11.2 6.5 12 10.6.4 1.9.5 11.4.5 13.9v9.6c0 .2-.5 6.2-.5 6.6-.2 4.6-5.5 5.1-5.5 7.8 0 1.6 1.5 2.3 2.8 2.3h24.2c2.1-.1 2.8-1.5 2.8-2 0-3.4-9.9-2.6-10.1-9.6-.5-15.8 0-32.6 0-32.6 0-1 3.4-6.8 8.8-6.8 9 0 12.2 9.2 12.2 12.7v22c.2.7 0 .6 0 1.3 0 2.3.1 3.4 0 5.3-.3 4.5-5.5 5-5.5 7.6 0 2.9 2.5 2.4 2.5 2.4 6.8 0 24.8-.1 25.4-.1 1.8 0 2.3-1.9 2.3-2-.4-3.4-8.2-2.2-10.1-6.9zm-80.5-4.1c-1.1.8.1 1.3-1.8 3.4v-37c1.6 1.7.9 3.1 1.8 3.8v29.8zm33.2 4.1v-.8h.5l-.5-27.1v-3.8c-.7-.5-.6-3.4-1.4-4v-1c3.2 3.6 3.5 13.9 3.5 13.9l.1 19.4c-1 .8-.3 2-2.2 3.4zm35.5-.3l-.1-5.3c.1 0 .1-24 .1-24-1.2-.9-.4-5.9-2.3-7.3v-.8c3.3 3.6 3.9 13.2 3.9 13.2l.1 22.3c-.8.5-.5.7-1.7 1.9zm48.7-51.1c-1.2 0-1.6-.1-3.5 0-7.2.4-25.3 10.1-26.7 27.8-.3 4-.3 5.4 0 10.4.3 4.1 4 11.5 6 14.2 3.6 5 14 10.1 21.4 10.1 24.1 0 31.8-21.7 31.8-28.9V69c0-13.1-12.5-27.5-29-27.5zm-18.2 53.9s-4.6-4.6-6-7.1c-6.2-11.3-3.2-18.7-3.2-18.7.6-.5.7-5.3 3.5-9.9v.8c-1.8 1.3-1.8 16.4-1.8 16.4 1.1.8 0 9.3 8.3 18.5h-.8zm21 2.5h-2.1c-2.7 0-6.1-2-11.1-8.4-13.3-17-2.3-42.8 5.1-42.8h2.5c4.1 0 7.6 3.9 12.1 9 10.9 12.4 6.1 42.2-6.5 42.2zm14.9-13.4s-.4-8 0-12.2c1.2-12.4-7.7-20.5-8.1-21.5 15.7 13.6 10.9 28.3 8.1 33.7zm191.6 7.9c-2 0-4.9 2.3-8.3 2.3-6.5 0-7.6-7.3-7.6-9.1V53.7c0-1.1 1-2.8 2.5-2.8h7.1c3.4 0 6.9-1.5 6.9-7.1v-3.5h-1.4c-2.5 0-3.1 3.3-6.9 3.3h-5.8c-.8 0-1.2-.2-2.1-1V30.9c-.6-.6-1-1.5-1.8-1.5-2.1 0-1.9 1.3-9.5 9.6-6.3 6.9-9.2 7.7-9.2 10.1 0 4.2 8.1-.4 6.5 6.8v34.9c0 5.2 4.7 12.7 11.5 12.7h3.9c7.1 0 15.7-7.5 15.7-9.6.1-.2.2-1.5-1.5-1.5zm-26.3 0l-.5-38.8c.2.2 2-.4 2-.7l.2 39c.4.3.1 2.6 1 5.6-2.6-3.4-1.9-4.6-2.7-5.1zm5.3-53.3s-.9 1.9-3.8 4.6l-1.5-.2c.6-1 4.3-4.9 5.3-6.1v1.7zM600.4 41h-3c-7 0-24 12.1-24 29.4v5.8c0 7.4 9.3 26.8 24.4 26.8h2.1c2 0 10.5-1 17.3-8.1 3.9-4 5.3-5.8 5.3-6.8 0-1.5-1.2-2-1.4-2-.4 0-9.8 5.8-10.6 5.8-2.7 0-3.8.8-4.2.8h-2.1c-13.3 0-15.9-17.6-15.9-17.7-.2-.4-.9-.3-.9-.8-.2-1.2 0-2.2 0-4.1 0-1.6 1.2-2.5 3.5-2.5h29.3c1 0 2.3-1.6 2.3-2.5v-3.5c0-10.1-13.8-20.6-22.1-20.6zm-20.3 47.1c-6.7-15-2.8-21-.9-27.3 0 0-3.6 11.5 2.3 26.1 2.6 6.3 4.1 5.7 5.3 8.4-.6-.7-3.5-.1-6.7-7.2zm28.1-27.9c-.7.4-1.5 1.5-2.8 1.5h-15.9c-1 0-1.8 0-1.8-2 0-4.5 4.7-13.5 11.3-13.7 5-.1 8 4.9 9.2 9.6v4.6zm5.1.5h-1.2c0-.4-.6-7.7-1.8-8.6v-.8c2.4 4 2.7 5.6 3 5.8v3.6zM320.9 98.4c-12-1.6-9.8-8.1-9.8-8.6V61.5c0-6.7-5.7-20.2-18-20.2h-3c-6.9 0-11.9 7.6-14.8 7.6 0 0-.2.6-1.2 0v-7.3c0-.7-.7-2.3-1.4-2.3-2.1 0-1.5 1.7-10.6 5.1-5.9 2.1-9.9 2.4-9.9 4.6 0 1.7 1.6 2.2 3 2.5 3.2.8 5.3 2 5.3 7.6V89c0 7.4-6 8.1-6 10.4 0 2.9 2.7 1.5 3.2 1.5 5.6 0 25.1.1 25.1.1.9 0 1.8.5 1.8-1.4 0-2.7-1.7-2-3.5-2.5-4.3-1.3-7.1-3.2-7.1-9.9v-28c0-5.2 7.2-9.1 9.9-9.1 11.6 0 13.8 12.7 13.8 13.2v26.3c0 6.1-6 7.5-6 9.9 0 1.4.5 1.4 1.8 1.3 0 0 25.8.1 26.1.1 1.2-.1 2.6-2.3 1.3-2.5zm-55.8-9.8c-1 .7-.1 2.4-2.3 4.8l.3-3.5V56.2c-1.3-1-.7-3-.7-3 2.5 1.8 1.6 3.2 2.7 4v31.4zm37.2-.5c-1 .7.3 2.7-2.1 5.3l-.1-2.5.1-29.4-4.4-9.4c6.5 6.2 5.9 12 6.5 12.4v23.6zm-112.3 4c-3.7-3.2-5.7-6.5-7.8-9.1-4.1-5-12.2-18.9-12.2-20.2 0-1.8 1.6-3.6 10.8-10.9 4.6-3.6 14.1-5.4 14.1-7.8 0-1.1-1.1-1.8-1.8-1.8h-23.3c-1 0-1.9.7-2.3 1 1.5 3.9 4.6 4.4 4.6 6.3 0 2.9-5.1 7.9-6.9 9.6-7.9 7.4-7.4 7.9-9 8.4h-.9V2c0-.8-.9-2-1.6-2-1.1 0-1.2.8-10.1 4.8-5 2.2-9.5 1.8-9.5 4.3 0 3.2 7.9 2.7 7.9 7.3l-.1 75.2c0 3.5-5.5 5.4-5.5 7.6 0 .8.6 2.5 2.3 1.8h25.8c1.5 0 1.8-.3 1.8-1.8 0-4.2-11.1-2-11.1-12.1v-9.6c0-1.7 2.3-4.1 3.7-4.1 2.4 0 4.3 5.4 5.3 6.8 2.9 3.9 4.2 5.8 5.1 7.3 5.5 9.9 9.9 13.4 11.5 13.4h16.4c1.3 0 2.8-.6 2.8-2-.1-3.7-4.2-1.9-10-6.8zm-16.1-45.8h1.2c.1.2 1.4 1.5 1.4 2 0 0-.7 2.3-2.1 3.3l-.5-4.3v-1zm-29.5 46.3V17.2h-.5v-3.3c2.5 2.8 1.4 4.3 2.5 5.1l-.4 51.1v2.5l.6 17.5c-.1 0-1.6 3.2-2.2 2.5zm35.7 4.3c-2.4 0-17.4-25.1-17.8-25.3v-1.3h1.2l17.3 26.6c-.3.1-.5 0-.7 0z"/><path d="M250.2 92.6h-2.5c-1.6 0-3.9-3.5-3.9-3.5V56.9c0-10.4-10.2-16.2-19.8-16.2h-2.1c-15.6 0-20.3 11.6-20.3 13.2v3.5c0 .2.7 2.5 2.3 2.5h2.1c2.1 0 8.3-1.2 8.3-5.1 0-2.3-.1-2 0-3.8.3-4.7 3.7-5.1 4.4-5.1h2.1c5.7 0 9.9 8.6 9.9 11.6v6.8c0 3.3-10.4 3.2-18.2 7.3-9.7 5.1-12.2 10.4-12.2 14.2v6.3c0 4.6 6.2 10.4 11.1 10.4h3c5.7 0 16.1-7.1 17.1-7.1 1.9 0 4.6 6.1 9 6.1h3.5c6 0 10.6-6.9 10.6-7.6-.3-2.6-3.6-1.3-4.4-1.3zm-43.8-36.4c-.8.2-.9.1-1.6 0v-1c-.3-3.2 2.5-6.1 3.9-6.3-.7.4-2.3 3.7-2.3 7.3zm3.2 43c-3.6 0-4.9-2.8-6.2-5.8-1.3-3.1-1.1-5.4 0-8.6.6-1.9.5-2.3 2.5-4.6v1c-1.2.9-.5 3.4-1.4 4v4.1c.9.7.3 2.3 1.8 5.8 1.1 2.4 5.2 4.1 3.3 4.1zm20.7-11.9c-.1.1-1.9 6.1-6.5 6.1H220c-3.3 0-5-5-5.1-5.1V83s3-11.4 13.4-11.4c.4 0 1 .7 2.1 0v15.7zm5.1 5.8v-.2c-.6-.7-2-2.1-2-2.1l-.1-31.4v-3.3c-1.8-1.3-1-6.6-4.1-8.4l.2-.5c5.8 5.5 4.5 8.6 5.5 9.4l.5 4.3v31.9c.3.4.4.6 0 .3zm-149.1-2c-1.7-2.5-5.4-12.4-5.5-12.7-4-8.9-5.1-13.8-9.9-25.8 0-.1-9.9-26.1-9.9-26.1-.3-1-1.8-5.3-4.6-13.2-3.5-9.8-4.9-12.2-6-12.2-1.9 0-1.5 1.2-6.2 11.6-.8 1.8-3 8-5.3 12.4-.6 1.1-9.6 22.6-10.4 24.8-15 41-24.3 46-26.9 47.5-2.9 1.7-1.1 4.2 0 3.9 11.8-2.6 23.4-.6 23.4-.6 1.2 0 4.8.8 5.3.8h2.5c1.2 0 2.3-.8 2.3-2.3 0-4.3-12.9-2.2-12.9-11.4v-2.3c0-11.8 7.6-18.5 11.8-18.7 9.6-.5 15.2-.2 19.6 0 .3 0 5.9.9 6.5 1.3 2.5 1.6 7.1 19.8 7.1 20 0 8.8-8.3 7.2-8.3 11.1 0 1.7.8 2 2.3 2h3c3.6 0 3.9-1 3.9-1h9.5c6.3.8 9.9 1.4 16.1 2.3 3-.2 3.7-.5 3.7-2.5-.1-4.3-6.6-2.2-11.1-8.9zm-69.2-2.5c-.1.1-2.5 6.9-5.8 6.1 1.5-1.1 2.1-3.3 5.8-9.4v3.3zm35.5-29.4H35.8S33 57.7 33 56.4c0 0 4.6-13.6 5.1-14.9 0 0 5.6-13.4 6.7-13.4.2 0 2.6 4.2 6 14.4 0 0 5.5 12.8 5.5 14.7 0 1.9-2.1 2-3.7 2zm18.9 30.1c-.5.4-.5 1.3-1.6 2.5v-7.6l-5.5-15.4s-5.2-14.4-5.5-15.2c-.2-.5-5.5-15.1-5.5-15.2-2.6-6.7-6.5-14.2-6.5-14.2v-3h.7c1 0 5.3 11.7 6.7 14.7 2.2 4.9 5.2 13.9 6 15.7 1.4 3.1 4.7 12.8 5.8 15.9 1 3.1 1.8 4.1 1.8 4.1 3.5 9 2.2 10.8 3.7 11.9v5.8zm58.6-48.6c-5.9 0-8.7 8.7-11.5 10.9h-.9v-8.3c0-.8-.3-3.3-1.8-3.3-1.9 0-5.2 3.6-10.1 5.1-6.2 1.8-9 1.5-9 4.3 0 4 3.4 0 6.9 7.1.2.3.9.3.9.8v32.1c0 6.3-6 7.9-6 9.9 0 1.5 1.6 2.3 3 2H126c1.4 0 2.3-1.2 2.3-1.8 0-3.2-10.4-3.3-10.6-10.1-.1-3.1-.1-20.7-.1-25.6.1-5.2 3-8.1 4.9-8.1h2.1c4.3 0 7.8 5.1 9.7 5.1 3 0 6.9-10.3 6.9-11.4-.1-3.5-9.9-8.7-11.1-8.7zm-21.3 48.6c-1.1.8 0 2.5-2.5 4.3v-1.3h.5V58c-1.2-.9.2-2-.9-2.8v-1.3c2.2 2.4 2.6 3.2 3.1 3.5l-.2 31.9zm25.4-32.4h-.7c-2.1-2-5.9-3.7-6.5-4h1.6c4.4 0 4.4 1.5 5.5 1.8v2.2zm199-2.2v-4.3c0-2.8 4.7-4.8 6.7-4.8 9.3 0 11.4 12.7 14.5 12.7 2 0 2.3-2.8 2.3-2.8v-8.4c0-5.7-14-6.3-14.1-6.3-18.4 0-19.8 16.3-19.8 16.4v4.6c0 3.9 3.7 8.1 4.6 9.1 7.2 7.9 22.1 8.6 22.1 16.2v3c0 1.6-2.5 7.6-7.6 7.6h-2.5c-8.2 0-11.6-19-14.8-19-1.4 0-.6-.2-2.3 1v19c1.4 1 16.1 3.8 16.1 3.8h3c11.3 0 18-12.6 18-18.5v-3.5c0-16.5-26.2-17.5-26.2-25.8zm16.1-9.1c.4.2 3.7 1.6 3.7 3.8 0 .9-.5.3 0 1.3h-.7s-3.7-4.2-4.1-5.1h1.1zm-22.1 50.3c-.7.4-1.5-.3-2.1 0V85c2.5 6.4 1 7.3 2.1 8.1 0 0 .9 2.3 0 2.8zm24.9-11.1c-2.6-7.4-11.9-9-14.1-10.1-12.1-6.7-10.5-7.1-12.4-11.4-1.1-2.4 0-6.8 0-6.8.2.8 1.2 6.2 1.6 7.3 2.6 6.7 19.6 11.9 20.7 12.9 1.8 1.5 3.9 5.7 4.1 5.8v2.3zm74-28.5V52c0-2.8 4.7-4.8 6.7-4.8 9.3 0 11.4 12.7 14.5 12.7 2 0 2.3-2.8 2.3-2.8v-8.4c0-5.7-14-6.3-14.1-6.3-18.4 0-19.8 16.3-19.8 16.5v4.6c0 4 3.7 8.1 4.6 9.1 7.2 7.9 22.1 8.6 22.1 16.2v3c0 1.6-2.5 7.6-7.6 7.6h-2.5c-8.2 0-11.6-19-14.8-19-1.4 0-.6-.2-2.3 1v19c1.4 1 16.1 3.8 16.1 3.8h3c11.3 0 18-12.6 18-18.5v-3.5c.1-16.6-26.2-17.6-26.2-25.9zm16.1-9.2c.4.2 3.7 1.6 3.7 3.8 0 .9-.5.3 0 1.3h-.7s-3.7-4.2-4.1-5.1h1.1zm-22.1 50.4c-.6.6-1.5-.3-2.1 0V86.6c2.5 6.4 1 7.3 2.1 8.1 0 0 .8 2.1 0 2.8zM445 86.4c-2.7-7.4-11.9-9-14.1-10.1-12.1-6.7-11.8-10.9-12.4-11.4V58c.2.8 1.8 6.2 2.2 7.3 2.6 6.7 19 11.9 20.2 12.9 1.8 1.5 3.9 5.7 4.1 5.8v2.4zm82.5-82.9c-2-.1-46.5 0-46.8 0-1.5 0-2.8.8-2.8 2.5 0 4.8 14.8 2.2 14.8 14.2 0 0 .7 48.4-.3 67.3-.6 10.3-9.3 7.3-9.3 11.6 0 2.1 1.6 2.3 2.8 2.5l6.9-.8h11.8c2.3 0 2.5 1 2.5 1 .6.1 22.2 0 22.4 0 2.4-.1 15.7-3 19.8-6.3 15.8-13 22.3-27.2 23.1-37 .6-8.7.2-13 0-16.2-1.6-19.6-20.8-37.6-44.9-38.8zm-30.3 82.8c-.8.6-1.6 6.5-3.6 6.1 1-.8.3-3.5 1.4-4.3v-5.6h.5l.5-63.3c-.6-.4-.7-3.8-1.4-4.3v-1.3c2.7 4.4 2.7 6.4 3 6.6l.2 57.3-.6 8.8zm49-.8c-3.4 4.5-10.9 9.9-19.1 9.9h-6.7c-9.3 0-12-7.6-12-7.6l-.5-3.8V17.4c1.2-.3 1.2-7.3 7.8-7.3h4.4c13.7 0 24 10.9 24 10.9s5.4 6.7 7.1 10.6c4.4 9.7 9.2 35.2-5 53.9zm7.4-4v-.8c1.8-1.3 9.2-28.2 0-51.4-1-2.6-2.8-5.6-10.1-13.7h.7c.5 1.1 4.6 2.9 10.1 11.9 12.8 20.8 3.8 49-.7 54zm-145.7 6.8V57.7c0-10.6-9.9-16.7-19.4-16.7H386c-13.6 0-20.3 9.6-20.3 12.7v4.8c1.1 1 .8 1.8 3 1.8 7 0 9.7-3.8 9.7-3.8v-5.8c0-1 1.2-4.3 3.9-4.3h2.5c5.8 0 9.9 8.8 9.9 12.1v6.1c0 3.5-11.4 3.6-18.9 7.6-10.1 5.3-12 11.6-12 15.4v3.5c0 5.4 6.4 11.6 10.1 11.6h4.8c4.8 0 16-7.1 16.4-7.1 1.8 0 4.5 6.3 9.7 6.3h2.1c4.7 0 6.6-9.1 6-9.1-4.4.1-5-4.4-5-4.5zm-35.5-38.7c-2.6 1.9-.7 7.1-3 7.1-.2 0-.5-.1-.9 0v-2.3s.8-2.2 3.9-5.6v.8zm.6 49.9l-4.2-2.8c-.3-.4-1.3-3.7-1.8-4.1v-6.1c.5-.4 1.4-6.1 3-5.8-1.1.8-.3 2.5-1.4 3.3v6.6s.6 2.8 5.1 8.9h-.7zm21.5-13.7c-.7.5.3 7.8-9 7.8-5.6 0-4.9-3.2-6.5-4.3v-6.8c.6-.4 3.3-10.6 13.1-10.6 1.5 0 1.4.4 2.3 1v12.9zm6 10.1c-2.5-2.8-1.8-3.7-2.5-4.3V58.3c-.4-2.3-.1-1.9-1.4-5.1-.8-2.1-2.4-3.9-3-5.6 5.8 5.6 5.3 8.6 6.3 9.3v36c2.1.4.6 3 .6 3zm962.3-6.6c-8.7 0-16.1 3.5-19.1 3.6h-1.2V92c11.3-13.8 12.1-21.8 16.4-21.8h10c1.4 0 2.4-1.3 2.4-1.5 0-1.8-4.2-1.5-5.5-1.5-2.4 0-3.7.2-6.1 0v-1.5l18.2-26.3v-1.2h-1.5c-3.6 2.2-18.7 5.5-23.9 5.5-11.6 0-18.1-5.5-19.1-5.5-1.7 0-7.5 7.9-14.2 10.6v.9c4.5 1.8 7.6 2.1 11.8 2.1 1.5 0 4.3.1 4.8 0 6.5-1.4 10.2-2.6 16.7-4.2h1.2v.9c-7.3 8.1-10.9 19-14.2 19.4-2.7.3 3-.4-11.2 0-1 0-1.5.5-2.4.9v1.8c4.7-.3 9.3 0 11.5 0v1.8l-20.6 29.7v1.2h.9c6.2-3.7 21.7-5.8 22.1-5.8h3.3c7.6 0 13.8 4.5 17 6.4l17.9-10c-1.3-3.1-13.6-4.6-15.2-4.6zm192.6-31.5c0-1.9-19.2-20.6-19.7-20.6-1.7 0-1.6.6-15.1 8.8-7.5 4.5-13.6 6.3-13.6 10 0 0 .2 19.9.1 26.6 0 1.5-2.5 3-4.3 4.2v1.8c4-.7 4.1-2.4 6.1-2.4 1.4 0 20 17 20.6 17 2 0 25-14.1 25.4-14.2v-1.5h-1.5c-9 5.4-11.8 6.7-11.8 6.7-1.2 0-17.3-15.6-17.3-16.1-.1-1.6 31.1-18.7 31.1-20.3zm-31.8 16.1c-.3-.2-.4-.3-.4-.4 0 .1-.1.2-.5.4V53.3c-.6-4.2.1-4.9-.6-5.8 2.5-.3 2.1-.9 3-.9 1.3 0 5.5 5.8 8.2 8.2 5.9 5.2 7.6 8 7.6 8.5 0 2.3-10.4 4.6-17.3 10.6z"/><path d="M1317.4 88.1c-1.2 0-2 2.4-3.3 2.4-3.3 0-3.5-3.2-3.5-5.1 0 0 .2-24-.2-30-.1-2.2-16.1-17.3-16.7-17.3-1.1 0-34.2 19.1-34.2 20 0 4.8 20.3 8.2 20.3 8.2v.9c-5.1 3.1-21.5 11.7-21.5 25.7 0 7.5 6 11.8 6.4 11.8 1.9 0 16.8-8.3 26.6-14.2h1.8v4.2l13.6 9.7c2.4-.7 11.5-14.6 11.5-15.1.1-.6.2-1.2-.8-1.2zm-24.5-1.8c-8.4 4.2-9.9 6.7-11.8 6.7-1.7 0-5.5-6.8-5.5-10.6 0-4.8 3.3-11.4 15.7-17.6h1.5v21.5zm-5.5-24c-6.7 0-12.1-8.5-12.4-8.8v-2.1c.6-.1 6.2-3.6 7.6-3.6 1.2 0 10.3 9.3 10.3 11.2 0 3.1-4.7 3.3-5.5 3.3zm-60.9-19.6h-5.2c-.1 0-5.3.7-7 1.2h-2.4V19.7h1.2c2.4 2.8 7.7 5.1 10.9 5.1 11.7 0 21.8-12.1 24.8-14.8v-.9c-2.4 1-7.2 5.9-12.7 6.1-6.3.2-14.2-6.7-14.8-6.7-2.2 0-35.9 19-39.7 22.4v1.2c2.7-.9 3.6-1.2 3.9-1.2 1.6 0 3 1.5 3 2.4V86c0 2.2-4 4.7-5.5 6.1.5.3.7.5 1.5.9l19.4-10.6V21.8c0-.8 2.1-3.3 3.9-3.3.7 0 1.1-.1 1.8 0v76c-.3 1.1 0 1.4 0 2.7 0 2.2-.5 4.5-2.1 4.5h-7.6c-26.5 0-28.3-15.2-32.1-32.7-1.5-6.9-1.1-11.2 0-18.2 3.1-19 2.6-29.5 28.8-40V10h-1.5c-1.1.4-9.6 1.8-18.5 6.7-19.1 10.4-25.3 18.9-27.9 36.6-.8 5.3-.9 8.4 0 13.6 2.1 13.2 9.4 21.8 18.8 28.8 7.5 5.6 25.2 9.5 27.6 9.7 2.4.2-1.8-.4 12.4 0 1.2 0 2.1 1.4 2.1 2.1v3.9c-2.4 2.1-7.9.4-7.9 5.1 0 .1 1 3.9 4.2 3.9 3.1 0 5.8-2.8 5.8-4.5v-10.3c2-1.8 17.2-3.6 27.9-11.8 9.9-7.6 12.2-12.8 12.7-23 .1-1.3.1-2 0-3.3-.5-14-6.8-24.8-25.8-24.8zm-14.2 5.1c2.5-1.2 4.2-1.8 7-1.8 11.1 0 14.4 11.1 14.5 11.2v3.3h-.9c-.6-.3-4.3-1.2-4.8-1.2h-7c-.8 0-6.7 1.5-7.3 1.8h-1.5V47.8zm22.1 28.5c-1.1.7-.4 7.6-7.3 15.4-.6.8-7.2 8.8-13.6 8.8-.2 0-.7-.1-1.2 0V64.8c3.1-1.5 8.8-3 12.1-3 7.8 0 10.1 3.3 10.6 3.6l-.6 10.9zm264.7 18.4c-2.2 0-9.4-7.3-11.8-8.2V44.8c.8-.7 1.3-1.2 2.1-1.2h9.4c2.5 0 3.1-1.1 3.6-1.5-1-1.1-.8-1.5-2.4-1.5-8.2.1-10.3 0-12.1 0 0-3.6-.7-16 0-23.3h-.9c-13.8 8.3-17.6 11.1-17.6 11.2 0 .7 1.8 2.6 1.8 3.9v7c-1.4 1.2-2.1 1.5-2.1 1.5h-16c-1.1 0-1.2-.5-2.1-1.2V21.8l1.2-3h-.9c-14.4 8.6-18.4 11.1-18.5 11.2 1.7 1.5 2.4 3.2 2.4 3.6v4.8c0 1.4-2.1 2.5-2.1 2.5-.8.1-7-.9-9.4 0v2.6c1.1-.4-2.1-.2 8.8 0 1.7 0 2.7 1.4 2.7 2.4v44.8c0 2.3 16.3 13 16.4 13l19.7-10.6c4 .5 14.4 10 16.7 10 2.4 0 3 .2 20.6-11.5v-1.2h-.9c-1.8.1-7.5 4.3-8.6 4.3zm-28.8-5.4c.2 1.3-6.2 5.2-7.6 5.2l-10.9-8.5c-.3-.5 1.8-38.8-.6-41.8h19.1c.5 5.5 0-12 0 45.1z"/><path d="M1420 48.4c-5.3-4.1-8.9-10.3-10.6-10.3-2.1 0-13.1 7.2-14.5 8.2-3.9 2.8-13.6 5.9-13.6 8.2 0 22.3.1 25.2 0 28.2 0 1.8-2.7 3.2-4.2 4.5v.9c.5-.1.8 0 1.2 0 1.8 0 2.3-1.5 3.9-1.5s3.4 2.8 10 9.1c2.5 2.3 9.3 8.8 10.3 8.8 2.1 0 11.5-6.4 13.6-7.3 2.4-1 12.7-7.1 12.7-7.9 0-1.2.2-.6-.9-1.2l-13.3 7.3c-2.2-.6-3.1-2.5-8.8-8.2-3.6-3.6-8.5-7.7-8.5-8.5 0-1.3 4.5-3.1 4.8-3.3 1.9-1.4 10.5-6.3 11.2-6.7 5.2-2.5 16.7-8.7 16.7-9.7s-8-9.1-10-10.6zm-5.1 15.8l-17.6 10.3h-.3v-26c-.2-.9.9-1.3 1.8-1.5l16 15.7v1.5zm-279.4-33.5c-.5-2.1.6-5.6-2.4-6.3-1.6-1-4-.6-5.4.3.1 1-.2 2.1.4 2.9-1.5 1.1-1.6-1.5-2.8-2.1-5.5-1.8-11.1.4-16.9.2-3.8-4.6-8.4-7.6-13.5-9.3-5-1.6-9 1.6-12.6 4.7-.5 1-.8 2.4-1.6 2.8-1-1.3.6-3.8-1-4.9-1.3-1.2-3.1-.9-4.9-1-5.8-5.3-13.4-.6-18.5 3.1-1 .6-.9 2.1-.3 2.9-.8 3.9-5.4 1.7-8 2.6-2.8.6-.7-3.2-1.8-4.5-1.8-3.1-4.9-5.3-8.3-5.9-7.2-.2-12.8 4.3-17.3 9.9-7.5.7-17.6-3.5-22.9 2.9-1.5-1 .5-2.1-.3-3.4-1.5-.2-2.9-1.2-4.4-.5-1.5.3-2 1.6-2.8 2.7-.4 3.7-.6 7.4-.8 11.2.9 1.4 2.6 1.7 4.1 1.3 4-2 7.9.9 11.8.4 1.8-.6 1.9-2.5 2.6-3.9 2.3.1 4.7-.3 6.8.3-4.1 9.3-7.3 19-9.3 29.3-1.8 9.6-3.1 19.4-3.1 30 .5 1.1 1.3 2.5 2.8 2.1 2-.8 2.3-3 3.1-4.5 1.3-.6 2.9-1.7 3.3-3.1-.8-3.6 4.1-4.9 4-8.3 3.1-3.6 5.2-9.6 10.2-10.6-1.1 2.5.4 4.6 1.5 6.7-1.1.9-3-.2-4 .9.5 2.4 2.8 4 4.7 5.4-.5.6-2 0-1.8 1.2 1 2.9 4.1 4.8 6.9 5.2l-1.4 2c-.5 2 1.8 2.8 1.8 4.5 2.1 2.4 4.6 5.8 8.2 5.2 3.2 2.3 1.1 9.2 6.8 8.1.2-1.7-.9-3-1.1-4.6-.6-2.6-4.8-4.8-2.9-7.4 5.9 6.3 14.4 13.5 20.5 17 3.3-2.4 7.5-5.9 11.5-8.6.2 1.6 2.3.6 3.4.9 2.1 2.9 5.6-.1 7.8 1.7l2-7.8c.5-.9 1.4-.9 2-1.3 1-2.1 4.4-2.1 4.5-4.8 2-1.2 1.7-3.4 2.3-5.3 2.7-1.8 7.6-5.2 7.6-5.2l3-.5s2.3-3.4 3-4.7c-2 .5-5.1 1.7-5.1 1.7l-1.3 2s-6.1 4.2-8.7 5.2c2-2.7 6.1-8.7 6.1-8.7l3.3-.5s1.4-4 1.7-5.9c-2.4 1.3-4.4 2.6-4.4 2.6l-1.3 2.8-7.6 9.3c-.3-.1-.6.1-.8-.2.8-2 2.7-7.6 2.7-7.6l3.4-1.9s.1-3.1-.3-4.9l-4 3.1 2-7.2 1.6-.3c5.5-.2 10.4 4.2 12.5 8.8 1.9 1.3 1.9 3.6 2.9 5.6 2 2.4 3.4 4.9 4.4 7.7 3.3 1 2.4 5.2 5.7 6.2 2.1-.2.6-2.7 1.6-3.5-.3-20.8-4-40.6-11.9-58.1l.5-.3c1.3-.1 4.4-1 3.6 1.6.6.9 1.5 1.2 2.5 1.5 3.9-.8 7.6-1.1 11.7-.4 4.6-1.1 1.8-5.8 2.7-8.5zM994.9 36c-1.1.3-2.4 0-3.1.9-.4-3.2-.1-7 1.1-10 .5-.6 1.7-.4 2.4-.2.1 3-.2 6.2-.4 9.3zm51.9 72.7c-.5.5-1.2-.2-1.5-.7-.2-1.5-1-2.9-1.1-4.5 1.4 1.4 2.4 3.3 2.6 5.2zm61.1-26.3l2.1-.9-1.1 2.4-2.3.7 1.3-2.2zm-2.8-5.2l1.6-1.2-.9 2.7-1.7.7 1-2.2zm-6.3-.7l.4 1.6-1.8 1.7-.4-2.4 1.8-.9zm-14.7-54.4c2.9-3.1 7-5.3 11.6-3.8 3.7 1.2 6.9 3.8 9.7 6.9v.8c-3.2 1.1-4.1-5-7-1.8-2.1-.4-4.2-2.7-6.5-1.1-.6.4-.2 1.3-.4 2-.5.4-1.3 0-1.8-.4-1.9.2-3.5 2.3-5.6 1-1.5-1.1 0-2.4 0-3.6zm-9.3-2.4c1.3-.2 3.4-.4 3.8 1.1-.1.9.3 1.9-.3 2.6.1 0-.1-1.1-.8-1.4l-4 .3c-.3-1.2.4-2 1.3-2.6zm3.7 18.7c-1.1.6-2.6.4-3.7.2-1.8-3.4-3.3-7-3.5-11.1 1-1.5 2.8-1.1 4.2-1.4 1.8 3 3.9 5.9 6.1 8.8-.5 1.5-1.7 3-3.1 3.5zm7.3-1.1c.6 1.4-1.4 1.2-2 1.9V41c-1.4-.6-3.1.4-4.2.5-.9-.8-2 .1-3.1-.2.4-.5 1.8-.3 2.6-.9 2.7 0 3.7-6 6.7-3.1zm-10.3-13c0-.2.8-1.2 1.3-1.1 0 .7-.8.9-1.3 1.1zm-16.7-2.5c3.5-3 7.8-4.8 12.5-4v.3c-2.1.4-4.2 1.2-6.2 2.1.8-.1 2.4-.3 3.1.1.7.4.5 1.4 1.3.7.9-.9 1.7-1.7 2.9-1.6-.4 1.3-.5 2.7-1.3 3.9-4.3 1.3-8.9 2.7-13.6 2.5.2-.9.9-1.6 1.4-2.4-.6-.4-.5-1.3-.1-1.6zm9.6 4.6c-.2.6.4 1.7-.5 2.1h-.5c0-.8-.5-2.6 1-2.1zm-3.1 3.4l-.2-2.8h.8c-.3 1 .3 2.4-.6 2.8zm-1.6.8c-.5.1-.9.8-1.5.5.3-1.3-.7-3.5 1-3.6.9.5.3 2 .5 3.1zm-4.1 1.6c-.5-1.2-.3-2.9-.1-4.2h1.2c-.9 1.6 2 4.1-1.1 4.2zm-3.7-3.7c.5-.4 1.3-.6 2-.5-.1 1.5 1.2 4.8-1.1 4.9h-.5c-.7-1.3-.3-2.9-.4-4.4zm0 6.5c4.6-1.6 9.2-3.3 13.5-5.7.2 1.9.9 3.9 1.1 5.8-.2.1-.3-.3-.6-.1-1.2 1 .5 1.7 0 2.9-1.3-.5-1 1-1.5 1.4-1.2.2-2-2.8-2.9-.6-1.3-1.5-2.6-.5-3.7.5h-.4c0-.4.1-.9-.3-1.2-1.2.1-1.2 2-2.6 1.7-.5-1.1-1.5-1.6-.9-2.9-.5-1.1-2.4-.1-1.7-1.8zm-3.2-6.5c.4-.8 1.4-.1 1.9-.5.3 1.6.1 3.5.2 5.3l-1.6.5c-.4-1.5-.7-3.3-.5-5.3zm.3 7c.2 1.3-.8 2.3-1.5 3.2-1.1 1-2.6.4-3.8 0-.9-.5-1.7-1.3-1.7-2.4 2.3-.5 4.8-.3 7-.8zm-11.4 1.8c3-1 3.8 3.2 6.3 3.8 1-.2 1.5.4 2.4.2-.3 1-2 .4-2.7.5-2 2-1.8-2.1-4.2-.8.5-2.2-3.9-1.7-1.8-3.7zm9.1-9h.9V34c-.4.5-1.2.3-1.8.3.8-2.1-1.9-5.1.9-6zm-15.1-10.4c3.7-.3 6.9 1.6 8.6 4.8.1 1 1 2.4-.1 3.2-.6.9-1.6.7-2.6.7-2.4-.9-3.5-4.4-6.7-3.3-1.3-.9-2.9-.6-4.2.2-1.6 1.1-2.3 3.9-4.5 2.8-1-1.4-1.4.9-2.6.1 2.5-4.3 7.3-7.5 12.1-8.5zm-30.1 19.7c-.9-.4-2.3-.4-3.2-.2.2-1.5 2.7-1.4 3.2-.3v.5zm-3.7-2.6c-1 .3-1.1 1.4-1.6 2.1 0-2.6-1.1-6.3 1-8.4.5-.9 1.5-.8 2.4-1.2l44.3 1c-1 2.3 2.1 5.9-1.3 6.2-15.1.7-30.1-.4-44.8.3zm22.7 17.5c.7-4.4 2.8-8.3 5.2-12-1.3 5-1.6 10.6-4.4 15.1-1.4-.3-.5-2.1-.8-3.1zm-2.4-4.8c1.4-3.1 2.4-6.2 4.8-8.8-1.6 6.7-3.1 14.1-7.2 20.1h-.3c-.2-4.2 1.5-7.6 2.7-11.3zm-7.3 15.4h-.8c-.8-5.2 1.8-9.5 3.1-14 1.7-3.8 3.9-7.4 6.7-10.7-3 8.2-4.6 17-9 24.7zm16.7-19.8c-1.2 3.1-.5 7-2 10h-.5c-.4-3.7.8-7 2.5-10zm-1.7 25.1h-.5c.4-1.5.4-3.2 1.1-4.7-.4 1.5 1.4 3.7-.6 4.7zm1.3 1.8l.8 1.8c-.1 1.2.1 2.5-.8 3.3-.5 0-.5-.9-.7-1.3-.8-1.4-2.3-1.8-3.3-2.8.9-.8 2.7-.4 4-1zm-19.7-17.4c1.9-5 3.7-10.2 7.8-14.4-3.5 9.6-6 20.3-9.7 30.2-.5.6-1.1 1.6-2 1.6-.1-6.1 2.1-11.8 3.9-17.4zm-6.5 42.9c-1.4-3.5.4-7.5-.1-11.7 1.1-3.8.6-8.4 1.8-12.2l2.4-.6c.3 2.7-.2 5.9-.5 8.7-1.2 5.3-.4 11.3-3.6 15.8zm6.5-11.4c-1.2 1.9-.3 4.7-2.4 6.2-.3-6.1.5-12.7 1.3-18.8.9-2.6 1.1-5.4 2.6-7.7 1.3.3.4 2.3.6 3.3-.6 5.7-1.4 11.3-2.1 17zm3.6-5c-.7 1.4-.7 3.2-2 4.4-.2-5.9 1.1-11.8 1.7-17.7.4-1.9 1.9-3.4 2.9-5.2-.3 6.5-2.2 12.2-2.6 18.5zm4-17.9l1.8-1.3c-1.3 5.9-1.4 12.2-3.8 17.6-.1-5 .8-11.1 2-16.3zm1.3 11.1c.3-.9.1-2.7.2-4 .5-4.2 1.9-7.8 2.6-11.9.4.3 1.3.7 1.1 1.5-.8 5.1-1.2 10.3-3.9 14.4zm3.1-1.8h-.3c.3-4.7 2-8.9 2.7-13.5l1.7-2.9.3.2c-1.5 5.4-1.3 11.5-4.4 16.2zm2.9-2c.9-4.6 1.3-9.3 3-13.6h.7c-.2 4.8-.9 9.5-2.8 13.5-.2.1-.5.2-.9.1zm.8 4.8c1 0 2.1.8 2.3 1.8v2.6c-1.6-.8-2.6-2.6-2.3-4.4zm-1.4 6.8c1.9.3 4 .5 5 2.6v.6c-2-.1-4.3-1.2-5-3.2zm2.4 6.3c2.3-.2 4 .9 5.2 2.6-1.9.2-4.1-.8-5.2-2.6zm4.9-4.2c-1.1-.1-1-1.6-1.5-2.4-.2-1.5.2-2.8 1.1-3.9 1 1.3 1.3 2.7 1.2 4.4-.9.5-.1 1.6-.8 1.9zm1 10.4c1.5-1 3-1.9 4.9-1.8-.9 1.7-2.9 3.1-4.9 3.3-.6-.3-.3-1.1 0-1.5zm0-8.9l.8-1.5c1.4.5 1 2.5 1.4 3.7-.8.5 0 1.7-.9 2.3-1.3-.9-1.4-2.9-1.3-4.5zm2.7 5.5l.6-1.3c.4.2.3.6.3 1.1l-.9.2zm.7 8.7c-.8.1-1.4 0-1.8-.6.2-2.6 3.2-3.4 5-3.9-.5 1.7-1.6 3.4-3.2 4.5zm3.1 2.6c-.8.3-.9-.3-1.3-.6.4-1.6 1.4-3.5 3.2-3.9-.1 1.7-.6 3.4-1.9 4.5zm41.7 6.2l-2.1-.9c1.5-1.4 2.7-3.8 4.7-4.6l.4.7c-.6 1.8-1.8 3.3-3 4.8zm-1.9-3.4l4-4.6-.2 1-3.8 3.6zm6.1 4.2c-.9.3-1.2-.6-1.9-.5.5-1.8 1.7-3.8 3.1-4.9.8 1.9-.8 3.4-1.2 5.4zm3-9c-.9-1.4-2.4-2.6-2-4.4 1.6.8 3.4 2.5 4 4.2-.5.7-1.4.5-2 .2zm3.3-1.8l-4.2-3.6v-1.2c2.3.8 5.6 1.4 5.9 4.1-.4.5-1 .8-1.7.7zm3.5-4.8v1.2c-2.1.3-4.8-1.1-5.7-2.6 2.2-.1 4.2-.1 5.7 1.4zm-4.2-3.8c1-3.2 3-6.7 3.8-10.3.3 4.1-2.5 6.9-3.8 10.3zm-.9-4.6c-4.8 10.1-11.4 16.5-19.3 24.2-1.8 1.3-7 5.1-7 5.1-18.6-11-31-30.5-32.4-51.1-.3-6.2-.4-12.8 1.4-18.4 4.4 1.1 8.6 3.8 13.7 3.6 6.3 0 11.4-3.4 16.1-7.3 5.7 3.2 11.1 8.1 18.6 6.3 4.6-.3 8.5-2.7 12.5-4.5 1.1.6.3 2.5 1.1 3.4 1.4 4.6.4 10.1 1.1 14.9-.8 8.6-2.3 16.6-5.8 23.8zm6.7-40.6l-.2-1.1c1.9 3.3 3.9 7.5 2.8 11.3-2.8-2.2-1.5-6.8-2.6-10.2zm14.1 15.8c-2.1 0-2.8-3-4-4.6-1.7-5.1-4-9.9-5.2-15.1 4.8 5.6 6.9 12.7 9.2 19.7zm-5.8-20.5c5.2 7.5 9.2 15.6 10.5 24.7-2.5 0-2.7-3.5-4-5.4l-6.5-19.3zm.3 17c-1.3.5-1.9-1.4-2.6-2.1-2.4-4.1-2.8-8.9-4.4-13.2 4 4.1 5.8 9.7 7 15.3zm-7.5 12.2c-.6-.2-.8-1.4-.1-1.8-.6.8.8 1.2.1 1.8zm1-2.4c-1.3-3.1-.6-7.2-.5-10.6 1.7.4.2 2.8 1.3 3.9.1 3.4.6 6.9 1.2 9.9-1.4-.4-1.7-2-2-3.2zm4.5 3.4c-3.3-2.3-1.8-7.2-2.7-10.8-1-1.7.2-3.3.3-5 1.4 5.5 1.7 10 2.6 15.7l-.2.1zm-.1-11.7l-.4-1c2.4.8 1.5 3.5 2.3 5.4 1 2.8 1 6.2 1.4 9.2-3.3-3.3-2.8-8.9-3.3-13.6zm3.1 5.2c.3-1.8-1.6-3.8.1-5.3 2.5 2.5 1.3 7.2 2.4 10.6.5 1.5-.1 3.5.5 5-2.7-2.3-2.3-6.6-3-10.3zm6.3 15.4c-1.1.1-1-1.3-1.5-2-1.3-4.7-1.2-10.3-1.9-15.1.8.3 1.4.9 1.6 1.6.2 4.8 1.4 9.1 1.5 14 .6.2.2 1 .3 1.5zm1-2.9c-.8-3.9-.9-8.1-1.3-12l-.4-.6c3.6 2.6 1.9 7.7 3.1 11.4.6 3.4 1.1 7.3 1.1 10.7-2.1-2.5-1.8-6.3-2.5-9.5zm6.5 16.1c-3-2.8-2.7-7.5-3.1-11.6-1.2-4.2-.6-9-1.8-13.3 1.4-2.3 1.5 1.4 2.1 2l1.2 6.8c.6 5.4 1.8 10.6 1.6 16.1zm1.6-18.7c1.7 7.2 1.3 15.2 1.8 22.9l-.3.3c-1.8-2.8-1.1-6.7-2-9.9-.4-4.7-1.2-9.3-1.6-14.1.7.4 1.4 1.1 2.1.8zm-.7-1.8c-1.5-.5-2.2-2.5-2.9-3.9-3-9.6-5.5-19.3-9.1-28.7 7.8 9.2 10.2 20.9 12 32.6zm-1.4-34.6c.9-.9 3-1.5 4-.1l-4 .1zm5-1.8c-2.5-.6-5.7-.4-7.9.5-10.7.2-21.4 1.4-32 .4-3.8-1.4-6.8-6.2-8.5-9.7.9 1.2 1.9-.2 3 .5 8.3 4.5 18.6 1.9 28.2 2.1 5.2-.3 10.4-1.5 15.4-1.1 2.9 1.2 1.3 4.6 2.3 6.8l-.5.5zm4.1.4c.5-2.6.5-5.9 0-8.5 1.3-.8 3.8-.2 3.7 1.7.1 2.8-.2 5.8.3 8.4-1.1-1-2.5-1.6-4-1.6z"/><path d="M1093.1 46.6c-6.2 2.6-15.2 3.9-22 1.2-2.4-.3-7-4.4-7-4.4s-1.5 1.1-2.2 2.1c-6.8 5.7-18 5.4-25.8 2l-.5.5c-.8 5.8-.1 11.9.4 17.6 1.8 17.8 12.9 33.6 28.5 44 13.5-9.2 24.8-23.5 28.1-39 .3-3.8 1.1-7.3.8-11.3 1-4.1-.2-8.4-.3-12.7zm-28.1 61.6c-8.9-5.3-16-13.9-21-22.4 13.7-.1 27.8-.5 41.3-.4-4.3 8.6-12.3 16.9-20.3 22.8zm21.9-25l-1 .3h-43.1c-2.8-4.6-3.7-10.1-5.2-15.4l44.8-.5c3-.2 6.3-.2 9.3 0-.4 5.7-2.9 10.5-4.8 15.6zm5.2-18.3l-.5.8-54.1.3c-.1-.1-.5-.4-.5-.8.8-1 3 .5 2.9-1.3 1.1-.2 2.6.4 4.1.8.3-.3.9-.8.3-1.1 1.8-1 3.2 2.8 4.8.1 1.8.5 3.9 1.4 5.6 0 2.5 3.1 4.1-1.9 6.7.8 2.8-1.8 5.6 1.3 8.4-.5 3.1.1 7.1.8 10-.2 1.3-1.8 4.1-3 3-5.8.5-.5 1.3-1.1 1.1-2-1.5-.5-5-.3-5-.3l.2 2.7c0 .1-3.3 0-3.3-.1 0 .2-.4-5.9-.4-6 0-.1-5.1 0-5.1-.1 0 .1 0 1.5-.1 1.5.2.1-3 0-2.9 0 0 .1-.2-3.7-.2-3.8.1.1-2.4-.2-3 .4l.2 2.6c.1.1-3.7.2-3.9.1.1-.1.2 1.2.3 1.8-3.3.6-10.8.2-10.6.3-.1 1 .7 2.3.4 3.3-.4.3-.9.4-1.4.4-.4-.6-.8-1.2-1.2-1.7-1 .2-1.9.3-2.6 1.3.4 1.2 1.7 2.1.4 3.3-.4-.4-.6-1.3-1.5-1-.2 1.2-1.5.5-1.9 1.5-1.3-.1-2.6-.8-3.5.5l.4.7c-.8-.3-1.5-.9-2.3-.4-1.1-4.2-1-9.7 0-13.9 8.6 2.1 20.2 2.4 27.2-4.6 7.4 5.9 19.2 7.1 27.9 3.4.9 5.4.7 11.7.1 17zm-31.7-2.7c0-2 1.6-3.6 3.6-3.6s3.6 1.6 3.6 3.6c0 .1-7.2 0-7.2 0z"/><path d="M1065.1 46.8c-1.2 1.3-3.7.1-3.1 3.3-2.4-.6-4.2 1.9-5.6 2.8 1.9-.9 4.3-1.6 6.7-1.7 0-.8.2-1.8.6-2 1-.6 2.7.6 3.2-1-.4-.7-1.1-1.4-1.8-1.4zm-10.5 27.6l-4-2.9c-2.3-1.2-4.7-3.5-7.3-1.8l2.3.9-.8.8s-3.7-1-4 .7c3.1.2 5.7 2.4 7.6 4.6-.3.6-1.7.3-1.4 1.4.1 1.4 2 .5 2.7.8 0 0 .4 2 .5 3.1 3.1.5 6.9.5 9.9 0-1-1.9-2.5-3.6-2.9-5.8 2.7-1.5 6.3-2.3 8.6-3.3.8-.6 0-.9-.3-1.5 0-.1-7.2 2-10.9 3zm-6.8-1l-1.3-1.1.6-.9 1.9 1.2-1.2.8zm1.4 1.1l.8-.7 2.6 1.3-2 .7-1.4-1.3zm8.5 6.3h-6.1l-.2-2.6 4.2-1.4 2.1 4zm24.2-5.3c-.2-1-.5-2-1.2-3.5-.9-1.2-2.7-2.7-4.4-2.8-1.6.3-3.5 1.4-4.3 2.8-1.1 1.8-1.1 2.4-1.3 3.4 0 1.1-.4 1.5-1.1 1.5v2.2c2 0 1.6 3 1.6 3h10.3s.2-3 1.7-3c0 0 .1-1.3.1-2.1-.8 0-1.2-.4-1.4-1.5zm-8.8 5.4v-1.2h6.3l.1 1.1h-6.4zm32.4-48.5c0 .6-.3 1-1 1s-1-.3-1-1v-3h-1.5v2.9c0 1.5.7 2.2 2.4 2.2s2.4-.7 2.4-2.2v-2.9h-1.5v3zm16.5-2.9c-.8-.2-1.6-.3-1.6-.7 0-.3.4-.4.7-.4.4 0 .9.1.9.6h1.5c0-1.1-1.1-1.6-2.2-1.6-1 0-2.3.4-2.3 1.5 0 .9.8 1.2 1.6 1.4.8.2 1.6.3 1.6.7 0 .4-.5.5-.9.5-.6 0-1-.2-1.1-.8h-1.5c0 1.3 1.1 1.8 2.4 1.8 1.2 0 2.4-.4 2.4-1.7.1-.7-.7-1.1-1.5-1.3zm-34.5-.8h-2.7v5h1.5V32h1.2c1.2 0 2-.5 2-1.7 0-1.1-1-1.6-2-1.6zm-.3 2.4h-1v-1.3h1c.4 0 .8.2.8.7 0 .4-.3.6-.8.6zm22.7-2.4h-1.4v5h4v-1.1h-2.6zm-11.1.5h-2.6v5h1.5v-1.7h1.2c1.2 0 2-.5 2-1.7-.1-1.1-1.1-1.6-2.1-1.6zm-.2 2.4h-1v-1.3h1c.4 0 .8.2.8.7 0 .4-.4.6-.8.6zm-6.2-2.2c-1.8 0-2.8 1.2-2.8 2.6 0 1.5 1 2.6 2.8 2.6 1.8 0 2.8-1.2 2.8-2.6 0-1.4-1-2.6-2.8-2.6zm0 4.1c-.9 0-1.3-.7-1.3-1.5 0-.7.4-1.5 1.3-1.5s1.3.7 1.3 1.5-.3 1.5-1.3 1.5zm24.3-2.1c0 .6-.3 1-1 1s-1-.3-1-1v-3h-1.5v2.9c0 1.5.7 2.2 2.4 2.2s2.4-.7 2.4-2.2v-2.9h-1.5v3zm-58.1 60.1c-.1 2.2 2.2 2.5 3.3 3.8-.4 2.8-1.7 4.9-2.6 7.2h1.8c2.9-.2 5.8.3 8.7-.2-1.1-2.1-2.2-4.5-2-7.2.3-.6 1.6-.8 1.6-1.5 2 .2.6-2.7 2.6-2.4-.5-.7-.6-1.7-1.3-2.1.6-1.9-1.7-1.1-2-2.2-2.5 0-4.9.6-7.6-.2-.2 1.1-1.8.8-2.5 1.5.3 1.2-.5 1.6-.8 2.4-.1.7.6.7.8.9zm7.5 8.8l-.9 1.2c-.7-.1-.1-1.2-.9-1.2-.5.2-.5 1.2-1.3.9v-.4c-.4-.4-.9 0-1.2.2v.2l-.2-1.3c.4-.9 1.3-1.8 1.5-2.9.5 1.4 2.1-.5 2.5.9.8.1.1-1.2 1.1-.8.3 1.5.8 2.8 1.1 4.3-1 .2-.9-.8-1.7-1.1zm-3.2-5.1c0-.3.9-.6 1.9-.6s1.9.3 1.9.6-.9.6-1.9.6-1.9-.3-1.9-.6zm5.1-6.3c1.1.2 1 1.1 1.5 1.7-.4 1.5-1.9 1.8-2.9 2.9h-.5c0-.2 0-.4-.2-.5-.2.1-.5-.2-.7.2v.3c-.5-.2-.5-.3-.8-.7l-.7.9c-.8-1.4-3.1-.9-3-3l-.5-.3c.9-2.9 5.2-1.3 7.8-1.5zm-58-57.3c.6-.2 1-.8 1-1.3 0-1.1-1.1-1.5-2.1-1.5h-3.1V34h1.6v-1.9h1.2c.8 0 .9.5.9 1.1 0 .1 0 .7.2.8h1.6c-.2-.2-.2-1-.3-1.2-.2-.4-.4-1.1-1-1.2zm-1.4-.5h-1.3v-1.2h1.3c.4 0 .8.2.8.6-.1.3-.3.6-.8.6zm4.9.8h3v-1.1h-3v-.9h3.3v-1.1h-4.9v5.3h5v-1.2h-3.4zm7.9.2h1.1c-.1.5-.6.8-1.4.8-1 0-1.4-.8-1.4-1.6s.4-1.6 1.4-1.6c.6 0 1.2.3 1.2.7h1.6c-.1-1.3-1.5-1.9-2.8-1.9-1.9 0-3.1 1.2-3.1 2.7 0 1.5 1.2 2.7 3.1 2.7.6 0 1.3-.2 1.7-.7l.1.6h1v-2.9h-2.6v1.2zm7.6.1l-2.1-3.3h-1.6v5.3h1.5v-3.3l2.1 3.3h1.6v-5.3h-1.5zm6.8 2.3h1.7l-2.3-5.3h-1.6l-2.3 5.3h1.6l.4-.9h2.1l.4.9zm-2.2-2l.7-1.8.7 1.8h-1.4zm5.1 2h1.6v-4.1h1.8v-1.2h-5.2v1.2h1.8z"/></svg>